<svg width="138" height="47" viewBox="0 0 138 47" fill="none" xmlns="http://www.w3.org/2000/svg">
<path fill-rule="evenodd" clip-rule="evenodd" d="M21.8935 1.01915C21.7495 1.04072 21.225 1.11592 20.7107 1.18041C20.2067 1.2449 19.2502 1.43837 18.6023 1.61035C13.9328 2.80345 9.90102 5.34014 6.90802 8.96246C4.01787 12.4559 2.3414 16.4328 1.78602 21.0548C1.1586 26.4184 2.67051 32.2443 5.84864 36.6619C9.49988 41.7353 14.7351 44.9169 20.9164 45.8414C22.4078 46.0563 25.3288 46.0886 26.7276 45.8951C30.7902 45.3361 34.4929 43.8098 37.5682 41.4344C38.4424 40.7572 39.8926 39.4566 39.8926 39.3491C39.8926 39.2739 34.5957 33.9318 33.8038 33.2116L33.4336 32.8677L32.5182 33.6308C30.0806 35.673 27.4681 36.6942 24.362 36.8231C21.873 36.9199 19.9085 36.4792 17.7281 35.3506C11.8243 32.298 9.01645 25.4833 11.0426 19.1522C12.1431 15.7342 14.375 13.0147 17.4709 11.338C19.5279 10.2308 21.4512 9.74713 23.8477 9.75791C27.4886 9.75791 30.4199 10.9509 33.2175 13.5522L34.2049 14.4766L37.2802 11.3595C38.967 9.63964 40.3657 8.19929 40.3863 8.15629C40.4274 8.0381 38.6687 6.41506 37.5887 5.5874C34.6472 3.31938 31.397 1.88981 27.6533 1.21262C26.7276 1.05136 22.5312 0.900879 21.8935 1.01915ZM26.0899 3.86758C28.3835 4.12554 30.7388 4.82422 32.7444 5.83457C33.8243 6.38277 36.3031 8.0166 36.4574 8.28527C36.4985 8.36055 36.0459 8.89797 35.3363 9.62885L34.1432 10.8542L33.5158 10.3705C30.4405 7.9951 26.2442 6.802 22.4078 7.18894C21.6981 7.25343 21.081 7.31792 21.0296 7.32863C20.9164 7.3502 20.1245 4.405 20.1862 4.22224C20.2273 4.11475 20.793 4.00727 22.2535 3.82459C22.9529 3.72781 25.1539 3.7601 26.0899 3.86758ZM18.0057 6.39356C18.2217 7.25343 18.376 8.00589 18.3451 8.04889C18.3143 8.10259 18.1189 8.19936 17.9029 8.27456C17.6972 8.33905 17.0389 8.6615 16.4424 8.97324C12.0198 11.3165 9.06791 15.2827 8.12163 20.1627C7.99829 20.7538 7.90569 21.3987 7.90569 21.5815V21.9147H6.20865C5.02586 21.9147 4.51161 21.8825 4.51161 21.7965C4.51161 21.3127 4.88187 19.2491 5.13895 18.2923C6.49663 13.2512 9.81874 8.95175 14.4368 6.27529C15.0333 5.93134 17.3989 4.83501 17.5737 4.82422C17.6046 4.82422 17.8 5.53362 18.0058 6.39356H18.0057ZM7.93651 25.3328C8.12163 27.1279 8.9136 29.5463 9.84956 31.2231C11.5981 34.3295 14.5911 37.0167 17.6046 38.199C17.872 38.3066 18.088 38.4033 18.088 38.4248C18.088 38.4462 17.9338 39.0589 17.7383 39.7898C17.5429 40.51 17.3372 41.3054 17.2755 41.5526L17.1623 41.9934L16.5144 41.7246C14.8893 41.0475 13.2026 40.0264 11.6598 38.8117C10.7752 38.113 8.97531 36.1998 8.24505 35.1894C6.15719 32.298 4.78927 28.6542 4.54243 25.3436L4.48072 24.4837L6.16744 24.5159L7.85423 24.5482L7.93651 25.3329V25.3328ZM34.5855 37.7261C35.2952 38.4463 35.8814 39.0697 35.8814 39.1126C35.8814 39.2739 33.9066 40.5315 32.6621 41.1549C31.1194 41.9396 29.6692 42.4447 27.9103 42.8424C26.6658 43.1112 26.3984 43.1327 24.1049 43.1434C22.1198 43.1434 21.441 43.1004 20.6285 42.9499C19.7953 42.778 19.6308 42.7135 19.6719 42.5738C19.7027 42.4662 19.9188 41.6708 20.145 40.7787C20.3816 39.8973 20.5771 39.1556 20.5873 39.1449C20.6079 39.1341 20.8239 39.1771 21.0707 39.2524C21.3587 39.3276 22.4284 39.3707 23.8477 39.3707C25.8534 39.3707 26.2956 39.3384 27.1698 39.1341C29.1652 38.672 31.3765 37.7369 32.6416 36.8232C32.9296 36.6189 33.1867 36.447 33.2278 36.4363C33.2587 36.4255 33.8758 37.006 34.5855 37.7261Z" fill="#007680"/>
<path fill-rule="evenodd" clip-rule="evenodd" d="M60.3499 10.22C60.0003 10.9509 56.8735 17.4002 53.4074 24.5695C49.931 31.7282 47.0923 37.6185 47.0923 37.6507C47.0923 37.683 48.4191 37.7152 50.0544 37.7152H53.0063L54.1891 35.1033L55.3821 32.5021L61.399 32.4698L67.4261 32.4483L68.6397 35.0818L69.8637 37.7153H72.7847C75.0783 37.7153 75.6954 37.683 75.6543 37.5755C75.6337 37.511 72.4967 31.0403 68.7015 23.2044L61.8104 8.96244L61.399 8.93016L60.9876 8.89795L60.3499 10.22V10.22ZM63.5898 23.5807C64.752 26.1174 65.7085 28.2349 65.7085 28.2779C65.7085 28.3316 63.7646 28.3638 61.3784 28.3638C58.9511 28.3638 57.069 28.3209 57.0895 28.2671C57.3673 27.4932 61.3579 18.8405 61.4093 18.8942C61.4505 18.9264 62.4275 21.0332 63.5898 23.5807Z" fill="#002554"/>
<path fill-rule="evenodd" clip-rule="evenodd" d="M122.781 9.50008C119.377 10.0805 116.826 11.3596 114.759 13.5201C113.103 15.2506 112.064 17.1746 111.467 19.6253C110.49 23.6669 111.056 28.1598 112.959 31.4274C114.615 34.2866 117.248 36.3289 120.559 37.3285C123.213 38.1346 126.525 38.2529 129.374 37.651C131.153 37.2748 133.725 36.1784 135.308 35.1142L135.854 34.7595L134.661 32.6097C134.013 31.4274 133.437 30.417 133.395 30.374C133.344 30.3203 133.056 30.4493 132.758 30.6535C130.804 31.9541 128.602 32.7065 126.288 32.8355C122.133 33.0827 118.811 31.5241 117.217 28.579C116.127 26.569 115.818 23.3443 116.466 20.6787C116.548 20.3239 116.826 19.5931 117.073 19.0663C118.122 16.8414 120.097 15.358 122.791 14.7454C124.015 14.4767 126.905 14.4767 128.14 14.7561C129.384 15.0356 131.235 15.702 132.809 16.4222C133.55 16.7661 134.177 17.0349 134.198 17.0134C134.218 16.9919 134.342 15.8525 134.475 14.4767L134.722 11.9722L134.496 11.7679C133.766 11.1445 131.225 10.1449 129.22 9.70426C128.171 9.46779 127.656 9.4248 125.825 9.38181C124.303 9.36023 123.408 9.39252 122.781 9.5V9.50008Z" fill="#002554"/>
<path fill-rule="evenodd" clip-rule="evenodd" d="M80.0049 23.6345V37.7154H82.8333H85.6618V23.6345V9.55371H82.8333H80.0049V23.6345Z" fill="#002554"/>
<path fill-rule="evenodd" clip-rule="evenodd" d="M92.8615 23.6882V37.7153H95.6385H98.4155V31.1585V24.6018H101.861H105.307V22.3984V20.1949H101.861H98.4155V17.1315V14.0681H103.404H108.392V11.8646V9.66113H100.627H92.8615V23.6882V23.6882Z" fill="#002554"/>
<path fill-rule="evenodd" clip-rule="evenodd" d="M22.7884 14.7239C19.3222 15.1431 16.4115 17.798 15.5681 21.3236C15.3316 22.2909 15.3316 24.0752 15.5578 25.0534C16.6378 29.7721 21.3278 32.6957 25.9047 31.5133C31.1193 30.159 33.7626 24.4407 31.4691 19.5071C30.2451 16.8843 27.756 15.1001 24.7734 14.7131C23.8271 14.5949 23.8066 14.5949 22.7884 14.7239ZM25.3391 17.3465C27.4167 17.9162 29.1343 19.679 29.6589 21.775C29.8543 22.5382 29.8543 23.9355 29.6692 24.6664C29.1446 26.7517 27.4373 28.5144 25.4214 29.0626C24.6603 29.2669 23.0352 29.2669 22.2638 29.0626C20.2788 28.5252 18.6023 26.8161 18.0366 24.7739C17.7692 23.8065 17.8617 21.99 18.232 21.0548C18.9314 19.2705 20.4639 17.8732 22.3049 17.3572C23.0558 17.1423 24.578 17.1423 25.3391 17.3465Z" fill="#002554"/>
</svg>
