<svg width="138" height="47" viewBox="0 0 138 47" fill="none" xmlns="http://www.w3.org/2000/svg">
<path fill-rule="evenodd" clip-rule="evenodd" d="M21.8935 1.01915C21.7495 1.04072 21.225 1.11592 20.7107 1.18041C20.2067 1.2449 19.2502 1.43837 18.6023 1.61035C13.9328 2.80345 9.90102 5.34014 6.90802 8.96246C4.01787 12.4559 2.3414 16.4328 1.78602 21.0548C1.1586 26.4184 2.67051 32.2443 5.84864 36.6619C9.49988 41.7353 14.7351 44.9169 20.9164 45.8414C22.4078 46.0563 25.3288 46.0886 26.7276 45.8951C30.7902 45.3361 34.4929 43.8098 37.5682 41.4344C38.4424 40.7572 39.8926 39.4566 39.8926 39.3491C39.8926 39.2739 34.5957 33.9318 33.8038 33.2116L33.4336 32.8677L32.5182 33.6308C30.0806 35.673 27.4681 36.6942 24.362 36.8231C21.873 36.9199 19.9085 36.4792 17.7281 35.3506C11.8243 32.298 9.01645 25.4833 11.0426 19.1522C12.1431 15.7342 14.375 13.0147 17.4709 11.338C19.5279 10.2308 21.4512 9.74713 23.8477 9.75791C27.4886 9.75791 30.4199 10.9509 33.2175 13.5522L34.2049 14.4766L37.2802 11.3595C38.967 9.63964 40.3657 8.19929 40.3863 8.15629C40.4274 8.0381 38.6687 6.41506 37.5887 5.5874C34.6472 3.31938 31.397 1.88981 27.6533 1.21262C26.7276 1.05136 22.5312 0.900879 21.8935 1.01915ZM26.0899 3.86758C28.3835 4.12554 30.7388 4.82422 32.7444 5.83457C33.8243 6.38277 36.3031 8.0166 36.4574 8.28527C36.4985 8.36055 36.0459 8.89797 35.3363 9.62885L34.1432 10.8542L33.5158 10.3705C30.4405 7.9951 26.2442 6.802 22.4078 7.18894C21.6981 7.25343 21.081 7.31792 21.0296 7.32863C20.9164 7.3502 20.1245 4.405 20.1862 4.22224C20.2273 4.11475 20.793 4.00727 22.2535 3.82459C22.9529 3.72781 25.1539 3.7601 26.0899 3.86758ZM18.0057 6.39356C18.2217 7.25343 18.376 8.00589 18.3451 8.04889C18.3143 8.10259 18.1189 8.19936 17.9029 8.27456C17.6972 8.33905 17.0389 8.6615 16.4424 8.97324C12.0198 11.3165 9.06791 15.2827 8.12163 20.1627C7.99829 20.7538 7.90569 21.3987 7.90569 21.5815V21.9147H6.20865C5.02586 21.9147 4.51161 21.8825 4.51161 21.7965C4.51161 21.3127 4.88187 19.2491 5.13895 18.2923C6.49663 13.2512 9.81874 8.95175 14.4368 6.27529C15.0333 5.93134 17.3989 4.83501 17.5737 4.82422C17.6046 4.82422 17.8 5.53362 18.0058 6.39356H18.0057ZM7.93651 25.3328C8.12163 27.1279 8.9136 29.5463 9.84956 31.2231C11.5981 34.3295 14.5911 37.0167 17.6046 38.199C17.872 38.3066 18.088 38.4033 18.088 38.4248C18.088 38.4462 17.9338 39.0589 17.7383 39.7898C17.5429 40.51 17.3372 41.3054 17.2755 41.5526L17.1623 41.9934L16.5144 41.7246C14.8893 41.0475 13.2026 40.0264 11.6598 38.8117C10.7752 38.113 8.97531 36.1998 8.24505 35.1894C6.15719 32.298 4.78927 28.6542 4.54243 25.3436L4.48072 24.4837L6.16744 24.5159L7.85423 24.5482L7.93651 25.3329V25.3328ZM34.5855 37.7261C35.2952 38.4463 35.8814 39.0697 35.8814 39.1126C35.8814 39.2739 33.9066 40.5315 32.6621 41.1549C31.1194 41.9396 29.6692 42.4447 27.9103 42.8424C26.6658 43.1112 26.3984 43.1327 24.1049 43.1434C22.1198 43.1434 21.441 43.1004 20.6285 42.9499C19.7953 42.778 19.6308 42.7135 19.6719 42.5738C19.7027 42.4662 19.9188 41.6708 20.145 40.7787C20.3816 39.8973 20.5771 39.1556 20.5873 39.1449C20.6079 39.1341 20.8239 39.1771 21.0707 39.2524C21.3587 39.3276 22.4284 39.3707 23.8477 39.3707C25.8534 39.3707 26.2956 39.3384 27.1698 39.1341C29.1652 38.672 31.3765 37.7369 32.6416 36.8232C32.9296 36.6189 33.1867 36.447 33.2278 36.4363C33.2587 36.4255 33.8758 37.006 34.5855 37.7261Z" fill="#002554" fill-opacity="0.2"/>
<path fill-rule="evenodd" clip-rule="evenodd" d="M60.3494 10.2201C59.9998 10.951 56.873 17.4003 53.4069 24.5696C49.9305 31.7283 47.0918 37.6186 47.0918 37.6508C47.0918 37.6831 48.4186 37.7153 50.0539 37.7153H53.0058L54.1886 35.1034L55.3816 32.5022L61.3985 32.47L67.4256 32.4485L68.6393 35.0819L69.8632 37.7154H72.7842C75.0778 37.7154 75.695 37.6831 75.6538 37.5756C75.6332 37.5111 72.4963 31.0404 68.701 23.2046L61.8099 8.96256L61.3985 8.93028L60.9871 8.89807L60.3494 10.2202V10.2201ZM63.5893 23.5808C64.7515 26.1175 65.708 28.235 65.708 28.278C65.708 28.3317 63.7641 28.3639 61.3779 28.3639C58.9506 28.3639 57.0685 28.321 57.089 28.2672C57.3668 27.4934 61.3574 18.8406 61.4088 18.8944C61.45 18.9266 62.4271 21.0333 63.5893 23.5808Z" fill="#002554" fill-opacity="0.2"/>
<path fill-rule="evenodd" clip-rule="evenodd" d="M122.781 9.49996C119.376 10.0804 116.826 11.3595 114.758 13.52C113.102 15.2505 112.063 17.1745 111.467 19.6252C110.49 23.6668 111.056 28.1597 112.958 31.4273C114.614 34.2865 117.247 36.3288 120.559 37.3284C123.213 38.1345 126.525 38.2528 129.374 37.6509C131.153 37.2746 133.724 36.1782 135.308 35.1141L135.853 34.7594L134.66 32.6096C134.012 31.4273 133.436 30.4169 133.395 30.3739C133.344 30.3202 133.056 30.4492 132.757 30.6533C130.803 31.9539 128.602 32.7064 126.288 32.8354C122.133 33.0825 118.811 31.524 117.216 28.5789C116.126 26.5689 115.818 23.3442 116.466 20.6786C116.548 20.3238 116.826 19.5929 117.072 19.0662C118.122 16.8413 120.096 15.3579 122.791 14.7452C124.015 14.4766 126.905 14.4766 128.139 14.756C129.384 15.0355 131.235 15.7019 132.809 16.4221C133.549 16.766 134.177 17.0347 134.197 17.0133C134.218 16.9918 134.341 15.8524 134.475 14.4766L134.722 11.9721L134.496 11.7678C133.765 11.1444 131.225 10.1448 129.219 9.70414C128.17 9.46767 127.656 9.42468 125.825 9.38169C124.303 9.36011 123.408 9.3924 122.781 9.49988V9.49996Z" fill="#002554" fill-opacity="0.2"/>
<path fill-rule="evenodd" clip-rule="evenodd" d="M80.0049 23.6345V37.7154H82.8333H85.6618V23.6345V9.55371H82.8333H80.0049V23.6345Z" fill="#002554" fill-opacity="0.2"/>
<path fill-rule="evenodd" clip-rule="evenodd" d="M92.8613 23.6883V37.7154H95.6384H98.4154V31.1587V24.6019H101.861H105.306V22.3985V20.195H101.861H98.4154V17.1316V14.0682H103.404H108.392V11.8647V9.66125H100.627H92.8613V23.6884V23.6883Z" fill="#002554" fill-opacity="0.2"/>
<path fill-rule="evenodd" clip-rule="evenodd" d="M22.7886 14.7239C19.3225 15.1431 16.4118 17.798 15.5683 21.3236C15.3318 22.2909 15.3318 24.0752 15.5581 25.0534C16.638 29.7721 21.3281 32.6957 25.9049 31.5133C31.1196 30.159 33.7629 24.4407 31.4693 19.5071C30.2453 16.8843 27.7563 15.1001 24.7736 14.7131C23.8273 14.5949 23.8068 14.5949 22.7886 14.7239ZM25.3393 17.3465C27.4169 17.9162 29.1345 19.679 29.6591 21.775C29.8546 22.5382 29.8546 23.9355 29.6694 24.6664C29.1449 26.7517 27.4375 28.5144 25.4216 29.0626C24.6605 29.2669 23.0354 29.2669 22.264 29.0626C20.279 28.5252 18.6026 26.8161 18.0368 24.7739C17.7694 23.8065 17.862 21.99 18.2322 21.0548C18.9317 19.2705 20.4641 17.8732 22.3052 17.3572C23.056 17.1423 24.5782 17.1423 25.3393 17.3465Z" fill="#002554" fill-opacity="0.2"/>
</svg>
