<svg width="9" height="15" viewBox="0 0 9 15" fill="none" xmlns="http://www.w3.org/2000/svg">
<path d="M8.24936 0.003182L6.30422 6.10352e-05C4.11892 6.10352e-05 2.70668 1.44897 2.70668 3.69154V5.39356H0.750923C0.581923 5.39356 0.445068 5.53057 0.445068 5.69957V8.16561C0.445068 8.33461 0.582079 8.47146 0.750923 8.47146H2.70668V14.694C2.70668 14.8631 2.84353 14.9999 3.01253 14.9999H5.56424C5.73324 14.9999 5.87009 14.8629 5.87009 14.694V8.47146H8.15683C8.32583 8.47146 8.46268 8.33461 8.46268 8.16561L8.46362 5.69957C8.46362 5.61843 8.43132 5.54072 8.37405 5.48329C8.31678 5.42587 8.23875 5.39356 8.15761 5.39356H5.87009V3.95074C5.87009 3.25726 6.03535 2.90521 6.93871 2.90521L8.24905 2.90475C8.4179 2.90475 8.55475 2.76774 8.55475 2.59889V0.309037C8.55475 0.140349 8.41805 0.0034941 8.24936 0.003182Z" fill="white" fill-opacity="0.5"/>
</svg>
