<svg width="15" height="15" viewBox="0 0 15 15" fill="none" xmlns="http://www.w3.org/2000/svg">
<path d="M11.2494 0.003182L9.30422 6.10352e-05C7.11892 6.10352e-05 5.70668 1.44897 5.70668 3.69154V5.39356H3.75092C3.58192 5.39356 3.44507 5.53057 3.44507 5.69957V8.16561C3.44507 8.33461 3.58208 8.47146 3.75092 8.47146H5.70668V14.694C5.70668 14.8631 5.84353 14.9999 6.01253 14.9999H8.56424C8.73324 14.9999 8.87009 14.8629 8.87009 14.694V8.47146H11.1568C11.3258 8.47146 11.4627 8.33461 11.4627 8.16561L11.4636 5.69957C11.4636 5.61843 11.4313 5.54072 11.374 5.48329C11.3168 5.42587 11.2388 5.39356 11.1576 5.39356H8.87009V3.95074C8.87009 3.25726 9.03535 2.90521 9.93871 2.90521L11.2491 2.90475C11.4179 2.90475 11.5548 2.76774 11.5548 2.59889V0.309037C11.5548 0.140349 11.4181 0.0034941 11.2494 0.003182Z" fill="#002554" fill-opacity="0.3"/>
</svg>
