<svg width="15" height="16" viewBox="0 0 15 16" fill="none" xmlns="http://www.w3.org/2000/svg">
<path d="M10.9396 0.0757751H4.06036C1.82144 0.0757751 0 1.9014 0 4.14546V11.0406C0 13.2846 1.82144 15.1102 4.06036 15.1102H10.9398C13.1786 15.1102 15 13.2846 15 11.0406V4.14546C15 1.9014 13.1786 0.0757751 10.9396 0.0757751V0.0757751ZM7.5 11.7039C5.23842 11.7039 3.39855 9.85977 3.39855 7.593C3.39855 5.32622 5.23842 3.48213 7.5 3.48213C9.76158 3.48213 11.6014 5.32622 11.6014 7.593C11.6014 9.85977 9.76158 11.7039 7.5 11.7039ZM11.6995 4.45161C11.0312 4.45161 10.4876 3.90676 10.4876 3.2369C10.4876 2.56703 11.0312 2.02207 11.6995 2.02207C12.3679 2.02207 12.9116 2.56703 12.9116 3.2369C12.9116 3.90676 12.3679 4.45161 11.6995 4.45161Z" fill="white" fill-opacity="0.5"/>
</svg>
