<svg width="15" height="16" viewBox="0 0 15 16" fill="none" xmlns="http://www.w3.org/2000/svg">
<g clip-path="url(#clip0)">
<path d="M10.9396 0.0757751H4.06036C1.82144 0.0757751 0 1.9014 0 4.14546V11.0406C0 13.2846 1.82144 15.1102 4.06036 15.1102H10.9398C13.1786 15.1102 15 13.2846 15 11.0406V4.14546C15 1.9014 13.1786 0.0757751 10.9396 0.0757751V0.0757751ZM7.5 11.7039C5.23842 11.7039 3.39855 9.85977 3.39855 7.593C3.39855 5.32622 5.23842 3.48213 7.5 3.48213C9.76158 3.48213 11.6014 5.32622 11.6014 7.593C11.6014 9.85977 9.76158 11.7039 7.5 11.7039ZM11.6995 4.45161C11.0312 4.45161 10.4876 3.90676 10.4876 3.2369C10.4876 2.56703 11.0312 2.02207 11.6995 2.02207C12.3679 2.02207 12.9116 2.56703 12.9116 3.2369C12.9116 3.90676 12.3679 4.45161 11.6995 4.45161Z" fill="#002554" fill-opacity="0.3"/>
<path d="M7.49992 4.36353C5.72334 4.36353 4.27783 5.81223 4.27783 7.59301C4.27783 9.37367 5.72334 10.8225 7.49992 10.8225C9.27661 10.8225 10.722 9.37367 10.722 7.59301C10.722 5.81223 9.27661 4.36353 7.49992 4.36353Z" fill="#002554" fill-opacity="0.3"/>
<path d="M11.6995 2.90356C11.5162 2.90356 11.3669 3.05314 11.3669 3.23689C11.3669 3.42065 11.5162 3.57022 11.6995 3.57022C11.883 3.57022 12.0322 3.42076 12.0322 3.23689C12.0322 3.05302 11.883 2.90356 11.6995 2.90356Z" fill="#002554" fill-opacity="0.3"/>
</g>
<defs>
<clipPath id="clip0">
<rect width="15" height="15.0344" fill="white" transform="translate(0 0.0757751)"/>
</clipPath>
</defs>
</svg>
