<svg width="15" height="15" viewBox="0 0 15 15" fill="none" xmlns="http://www.w3.org/2000/svg">
<g clip-path="url(#clip0)">
<path d="M10.0172 1.71635C7.72892 -0.571915 4.00459 -0.571915 1.71632 1.71635C-0.571455 4.00512 -0.571455 7.72895 1.71632 10.0177C3.75408 12.055 6.9278 12.2733 9.21458 10.6824C9.2627 10.9101 9.37282 11.1274 9.54991 11.3045L12.8824 14.6369C13.368 15.1216 14.1527 15.1216 14.6359 14.6369C15.121 14.1518 15.121 13.367 14.6359 12.8834L11.3034 9.54995C11.1273 9.37435 10.9096 9.26373 10.6819 9.21561C12.2737 6.92833 12.0555 3.75511 10.0172 1.71635ZM8.96507 8.9656C7.25668 10.674 4.47633 10.674 2.76844 8.9656C1.06104 7.25721 1.06104 4.47736 2.76844 2.76897C4.47633 1.06108 7.25668 1.06108 8.96507 2.76897C10.6735 4.47736 10.6735 7.25721 8.96507 8.9656Z" fill="#002554" fill-opacity="0.3"/>
</g>
<defs>
<clipPath id="clip0">
<rect width="15" height="15" fill="white"/>
</clipPath>
</defs>
</svg>
