<svg width="15" height="15" viewBox="0 0 15 15" fill="none" xmlns="http://www.w3.org/2000/svg">
<g clip-path="url(#clip0)">
<path d="M10.0174 1.71635C7.72916 -0.571915 4.00483 -0.571915 1.71656 1.71635C-0.571211 4.00512 -0.571211 7.72895 1.71656 10.0177C3.75433 12.055 6.92805 12.2733 9.21483 10.6824C9.26294 10.9101 9.37307 11.1274 9.55016 11.3045L12.8826 14.6369C13.3682 15.1216 14.153 15.1216 14.6361 14.6369C15.1213 14.1518 15.1213 13.367 14.6361 12.8834L11.3037 9.54995C11.1276 9.37435 10.9098 9.26373 10.6821 9.21561C12.274 6.92833 12.0557 3.75511 10.0174 1.71635ZM8.96532 8.9656C7.25693 10.674 4.47658 10.674 2.76868 8.9656C1.06128 7.25721 1.06128 4.47736 2.76868 2.76897C4.47658 1.06108 7.25693 1.06108 8.96532 2.76897C10.6737 4.47736 10.6737 7.25721 8.96532 8.9656Z" fill="white"/>
</g>
<defs>
<clipPath id="clip0">
<rect width="15" height="15" fill="white"/>
</clipPath>
</defs>
</svg>
