<svg width="15" height="15" viewBox="0 0 15 15" fill="none" xmlns="http://www.w3.org/2000/svg">
<path d="M14.3625 3.3375C13.9556 2.61375 13.5141 2.48063 12.615 2.43C11.7169 2.36906 9.45844 2.34375 7.50187 2.34375C5.54156 2.34375 3.28219 2.36906 2.385 2.42906C1.48781 2.48063 1.04531 2.61281 0.634687 3.3375C0.215625 4.06031 0 5.30531 0 7.49719C0 7.49906 0 7.5 0 7.5C0 7.50187 0 7.50281 0 7.50281V7.50469C0 9.68719 0.215625 10.9416 0.634687 11.6569C1.04531 12.3806 1.48687 12.5119 2.38406 12.5728C3.28219 12.6253 5.54156 12.6562 7.50187 12.6562C9.45844 12.6562 11.7169 12.6253 12.6159 12.5737C13.515 12.5128 13.9566 12.3816 14.3634 11.6578C14.7863 10.9425 15 9.68812 15 7.50562C15 7.50562 15 7.50281 15 7.50094C15 7.50094 15 7.49906 15 7.49813C15 5.30531 14.7863 4.06031 14.3625 3.3375ZM5.625 10.3125V4.6875L10.3125 7.5L5.625 10.3125Z" fill="#002554" fill-opacity="0.3"/>
</svg>
